<svg width="244" height="206" viewBox="0 0 244 206" fill="none" xmlns="http://www.w3.org/2000/svg">
<g clip-path="url(#clip0_441_15)">
<path fill-rule="evenodd" clip-rule="evenodd" d="M123.151 99.2338C117.731 99.2546 112.046 102.399 105.496 109.924C104.364 111.225 102.387 111.366 101.08 110.238C99.7738 109.111 99.6325 107.143 100.765 105.842C107.78 97.7824 115.034 93.0312 123.127 93.0002C131.147 92.9694 138.958 97.5895 147.083 105.679C148.306 106.896 148.306 108.87 147.083 110.087C145.861 111.304 143.879 111.304 142.656 110.087C134.92 102.385 128.644 99.2127 123.151 99.2338Z" fill="#F6F6F6"/>
<path d="M183.711 206H62.2893C45.0102 206 31 192.143 31 175.054V72.9776C31 52.6547 47.8122 36.0269 68.3604 36.0269H103.853V18.9372C103.853 8.3139 112.259 0 123 0C133.741 0 142.147 8.3139 142.147 18.9372V36.0269H177.64C198.188 36.0269 215 52.6547 215 72.9776V175.054C215 192.143 200.99 206 183.711 206ZM68.3604 49.8834C55.2843 49.8834 45.0102 60.0448 45.0102 72.9776V175.054C45.0102 184.291 52.9492 192.143 62.2893 192.143H183.711C193.051 192.143 200.99 184.291 200.99 175.054V72.9776C200.99 60.0448 190.716 49.8834 177.64 49.8834H135.142C131.406 49.8834 128.137 46.6502 128.137 42.9552V18.9372C128.137 16.1659 125.802 13.8565 123 13.8565C120.198 13.8565 117.863 16.1659 117.863 18.9372V42.9552C117.863 46.6502 114.594 49.8834 110.858 49.8834H68.3604Z" fill="#F6F6F6"/>
<path d="M86.2857 126C74.2143 126 64 116.156 64 103.5C64 90.8437 73.75 81 86.2857 81C98.8214 81 108.571 91.3125 108.571 103.5C108.571 115.687 98.3571 126 86.2857 126ZM86.2857 95.5313C81.6429 95.5313 77.9286 99.2813 77.9286 103.969C77.9286 108.656 81.6429 112.406 86.2857 112.406C90.9286 112.406 94.6429 108.187 94.6429 103.5C94.6429 98.8125 90.9286 95.5313 86.2857 95.5313ZM158.714 126C146.643 126 136.429 116.156 136.429 103.5C136.429 90.8437 146.179 81 158.714 81C171.25 81 181 90.8437 181 103.5C181 116.156 170.786 126 158.714 126ZM158.714 95.5313C154.071 95.5313 150.357 99.2813 150.357 103.969C150.357 108.656 154.071 112.406 158.714 112.406C163.357 112.406 167.071 108.656 167.071 103.969C167.071 99.2813 163.357 95.5313 158.714 95.5313Z" fill="#F6F6F6"/>
<path d="M11.619 85C14.4649 85.0004 17.2117 86.0647 19.3384 87.991C21.4651 89.9174 22.8238 92.5718 23.1568 95.4508L23.2381 96.8355V144.178C23.2348 147.194 22.1008 150.096 20.0679 152.289C18.0349 154.483 15.2564 155.803 12.3 155.98C9.34361 156.156 6.43254 155.177 4.16157 153.24C1.89059 151.304 0.43111 148.558 0.0813337 145.562L0 144.178V96.8355C0 93.6965 1.22415 90.6861 3.40314 88.4665C5.58214 86.2469 8.53748 85 11.619 85ZM232.381 85C235.227 85.0004 237.974 86.0647 240.1 87.991C242.227 89.9174 243.586 92.5718 243.919 95.4508L244 96.8355V144.178C243.997 147.194 242.863 150.096 240.83 152.289C238.797 154.483 236.018 155.803 233.062 155.98C230.106 156.156 227.194 155.177 224.923 153.24C222.652 151.304 221.193 148.558 220.843 145.562L220.762 144.178V96.8355C220.762 93.6965 221.986 90.6861 224.165 88.4665C226.344 86.2469 229.299 85 232.381 85Z" fill="#F6F6F6"/>
<path fill-rule="evenodd" clip-rule="evenodd" d="M130.203 156.794C126.87 158.127 123.13 158.127 119.797 156.794L91.2589 145.386C88.5746 144.313 85.5026 145.555 84.3973 148.161C83.292 150.768 84.572 153.75 87.2563 154.823L115.794 166.232C121.691 168.589 128.309 168.589 134.206 166.232L162.744 154.823C165.428 153.75 166.708 150.768 165.603 148.161C164.497 145.555 161.425 144.313 158.741 145.386L130.203 156.794Z" fill="#F6F6F6"/>
</g>
<defs>
<clipPath id="clip0_441_15">
<rect width="244" height="206" fill="white"/>
</clipPath>
</defs>
</svg>
